<?xml version="1.0" encoding="utf-8"?>
<!-- Generator: Adobe Illustrator 19.0.1, SVG Export Plug-In . SVG Version: 6.00 Build 0)  -->
<!DOCTYPE svg PUBLIC "-//W3C//DTD SVG 1.1//EN" "http://www.w3.org/Graphics/SVG/1.1/DTD/svg11.dtd" [
	<!ENTITY ns_extend "http://ns.adobe.com/Extensibility/1.0/">
	<!ENTITY ns_ai "http://ns.adobe.com/AdobeIllustrator/10.0/">
	<!ENTITY ns_graphs "http://ns.adobe.com/Graphs/1.0/">
	<!ENTITY ns_vars "http://ns.adobe.com/Variables/1.0/">
	<!ENTITY ns_imrep "http://ns.adobe.com/ImageReplacement/1.0/">
	<!ENTITY ns_sfw "http://ns.adobe.com/SaveForWeb/1.0/">
	<!ENTITY ns_custom "http://ns.adobe.com/GenericCustomNamespace/1.0/">
	<!ENTITY ns_adobe_xpath "http://ns.adobe.com/XPath/1.0/">
]>
<svg version="1.1" id="Layer_1" xmlns:x="&ns_extend;" xmlns:i="&ns_ai;" xmlns:graph="&ns_graphs;"
	 xmlns="http://www.w3.org/2000/svg" xmlns:xlink="http://www.w3.org/1999/xlink" x="0px" y="0px" width="565.1px" height="89.4px"
	 viewBox="0 0 565.1 89.4" style="enable-background:new 0 0 565.1 89.4;" xml:space="preserve">
<style type="text/css">
	.st0{fill:#3982A5;}
	.st1{fill:#FFFFFF;}
	.st2{fill:#0C0110;}
	.st3{opacity:0.5;fill:#FFFFFF;}
	.st4{fill:#A5B5B8;}
	.st5{fill:none;stroke:#FFFFFF;stroke-miterlimit:10;}
	.st6{fill:none;stroke:#B12944;stroke-width:0.8989;stroke-miterlimit:10;}
	.st7{fill-rule:evenodd;clip-rule:evenodd;fill:none;stroke:#B12944;stroke-width:0.8989;stroke-miterlimit:10;}
	.st8{fill:none;stroke:#B12944;stroke-miterlimit:10;}
</style>
<metadata>
	<sfw  xmlns="&ns_sfw;">
		<slices></slices>
		<sliceSourceBounds  width="926.2" height="663" x="4.6" y="-739.6" bottomLeftOrigin="true"></sliceSourceBounds>
	</sfw>
</metadata>
<g>
	<g>
		<g>
			<g id="screen_35_">
				<g>
					<rect x="215" y="8.7" class="st0" width="105.4" height="15.5"/>
				</g>
			</g>
			<path class="st0" d="M256.4,60h-24.1c-0.7,0-1.2-0.5-1.2-1.2v-4c0-0.7,0.5-1.2,1.2-1.2h24.1c0.7,0,1.2,0.5,1.2,1.2v4
				C257.7,59.5,257.1,60,256.4,60z"/>
			<g>
				<rect x="230.9" y="31.3" class="st4" width="45.8" height="4.1"/>
				<rect x="230.9" y="37.9" class="st4" width="33.9" height="4.1"/>
				<rect x="230.9" y="44.5" class="st4" width="40.3" height="4.1"/>
			</g>
			<path class="st5" d="M248.5,19.9h-16.4c-0.6,0-1-0.5-1-1v-4.4c0-0.6,0.5-1,1-1h16.4c0.6,0,1,0.5,1,1v4.4
				C249.6,19.4,249.1,19.9,248.5,19.9z"/>
			<path class="st5" d="M271.2,19.9h-16.4c-0.6,0-1-0.5-1-1v-4.4c0-0.6,0.5-1,1-1h16.4c0.6,0,1,0.5,1,1v4.4
				C272.2,19.4,271.7,19.9,271.2,19.9z"/>
			<path class="st5" d="M293.8,19.9h-16.4c-0.6,0-1-0.5-1-1v-4.4c0-0.6,0.5-1,1-1h16.4c0.6,0,1,0.5,1,1v4.4
				C294.8,19.4,294.4,19.9,293.8,19.9z"/>
		</g>
		<g>
			<g id="Macbook_base_777_">
				<g>
					<path class="st6" d="M322.7,4.6H212.8c-1,0-1.9,0.8-1.9,1.9v73.4h113.6V6.5C324.5,5.4,323.7,4.6,322.7,4.6z"/>
				</g>
			</g>
			<g id="Keyboard__x2B__trackpad_5_">
				<g>
					<path class="st6" d="M332.9,79.8H202.6c-1,0-1.6,1-1.3,1.8c0.9,2.2,3.1,3.8,5.7,3.8h121.4c2.6,0,4.8-1.6,5.7-3.8
						C334.5,80.8,333.8,79.8,332.9,79.8z"/>
				</g>
			</g>
			<g id="Open_5_">
				<g>
					<path class="st6" d="M257.6,79.8c0.2,1.1,1.2,1.9,2.4,1.9h15.6c1.2,0,2.2-0.8,2.4-1.9H257.6z"/>
				</g>
			</g>
			<g id="Screen_5_">
				<g>
					<rect x="214.8" y="8.5" class="st6" width="105.8" height="69.4"/>
				</g>
			</g>
			<g id="Camera_5_">
				<g>
					<circle class="st6" cx="267.7" cy="6.5" r="0.8"/>
				</g>
			</g>
		</g>
	</g>
	<g>
		<g>
			<g id="screen_33_">
				<g>
					<rect x="436.4" y="11.8" class="st0" width="122.2" height="15.5"/>
				</g>
			</g>
			<path class="st0" d="M486.2,63.1H462c-0.7,0-1.2-0.5-1.2-1.2v-4c0-0.7,0.5-1.2,1.2-1.2h24.1c0.7,0,1.2,0.5,1.2,1.2v4
				C487.4,62.5,486.8,63.1,486.2,63.1z"/>
			<g>
				<rect x="460.6" y="34.4" class="st4" width="45.8" height="4.1"/>
				<rect x="460.6" y="41" class="st4" width="33.9" height="4.1"/>
				<rect x="460.6" y="47.6" class="st4" width="40.3" height="4.1"/>
			</g>
			<path class="st5" d="M478.3,23h-16.4c-0.6,0-1-0.5-1-1v-4.4c0-0.6,0.5-1,1-1h16.4c0.6,0,1,0.5,1,1V22
				C479.3,22.5,478.8,23,478.3,23z"/>
			<path class="st5" d="M500.9,23h-16.4c-0.6,0-1-0.5-1-1v-4.4c0-0.6,0.5-1,1-1h16.4c0.6,0,1,0.5,1,1V22
				C501.9,22.5,501.5,23,500.9,23z"/>
			<path class="st5" d="M523.5,23h-16.4c-0.6,0-1-0.5-1-1v-4.4c0-0.6,0.5-1,1-1h16.4c0.6,0,1,0.5,1,1V22
				C524.5,22.5,524.1,23,523.5,23z"/>
		</g>
		<g>
			<g id="Macbook_base_775_">
				<g>
					<path class="st6" d="M554.7,4.6H439.9c-2,0-3.6,1.6-3.6,3.6v73.6c0,2,1.6,3.6,3.6,3.6h114.8c2,0,3.6-1.6,3.6-3.6V8.2
						C558.3,6.2,556.7,4.6,554.7,4.6z"/>
				</g>
			</g>
			<g id="Macbook_base_773_">
				<g>
					<path class="st6" d="M554.7,4.6H439.9c-2,0-3.6,1.6-3.6,3.6v3.4h121.9V8.2C558.3,6.2,556.7,4.6,554.7,4.6z"/>
				</g>
			</g>
			<g>
				<circle class="st6" cx="440.9" cy="8.1" r="1"/>
				<circle class="st6" cx="444.3" cy="8.1" r="1"/>
				<circle class="st6" cx="447.8" cy="8.1" r="1"/>
			</g>
			<rect x="477.1" y="7.1" class="st6" width="40.4" height="2.4"/>
		</g>
	</g>
	<g id="screen_27_">
		<g>
			<rect x="17.7" y="17.9" class="st0" width="61" height="15.5"/>
		</g>
	</g>
	<g id="iPhone_5_base_9_">
		<g>
			<path class="st6" d="M80.4,4.6H16.1c-1.7,0-3,1.4-3,3v78.2l70.3-0.1V7.6C83.4,6,82,4.6,80.4,4.6z"/>
		</g>
	</g>
	<g id="screen_25_">
		<g>
			<rect x="17.6" y="17.8" class="st6" width="61.2" height="68.1"/>
		</g>
	</g>
	<g id="Speaker__x2B__cam_9_">
		<g>
			<circle class="st6" cx="48.2" cy="10.3" r="1.1"/>
		</g>
	</g>
	<path class="st7" d="M24.3,4.6h47.9c0.6,0,1.1,0.5,1.1,1.1s-0.5,1.1-1.1,1.1H24.3c-0.6,0-1.1-0.5-1.1-1.1S23.7,4.6,24.3,4.6z"/>
	<line class="st8" x1="6.6" y1="85.8" x2="90.1" y2="85.8"/>
	<path class="st0" d="M68.8,50.1H27.4c-1.2,0-2.1-0.9-2.1-2.1v-6.9c0-1.2,0.9-2.1,2.1-2.1h41.4c1.2,0,2.1,0.9,2.1,2.1V48
		C70.9,49.2,70,50.1,68.8,50.1z"/>
	<path class="st4" d="M68.8,64H27.4c-1.2,0-2.1-0.9-2.1-2.1v-6.9c0-1.2,0.9-2.1,2.1-2.1h41.4c1.2,0,2.1,0.9,2.1,2.1v6.9
		C70.9,63.1,70,64,68.8,64z"/>
	<path class="st4" d="M68.8,77.9H27.4c-1.2,0-2.1-0.9-2.1-2.1V69c0-1.2,0.9-2.1,2.1-2.1h41.4c1.2,0,2.1,0.9,2.1,2.1v6.9
		C70.9,77,70,77.9,68.8,77.9z"/>
	<path class="st5" d="M73.2,28.9h-5.1c-0.5,0-0.8-0.4-0.8-0.8V23c0-0.5,0.4-0.8,0.8-0.8h5.1c0.5,0,0.8,0.4,0.8,0.8v5.1
		C74.1,28.5,73.7,28.9,73.2,28.9z"/>
</g>
</svg>
