<?xml version="1.0"?>

<!-- Generator: Adobe Illustrator 19.1.0, SVG Export Plug-In . SVG Version: 6.00 Build 0)  -->

<svg xmlns:dc="http://purl.org/dc/elements/1.1/" xmlns:cc="http://creativecommons.org/ns#" xmlns:rdf="http://www.w3.org/1999/02/22-rdf-syntax-ns#" xmlns:svg="http://www.w3.org/2000/svg" xmlns="http://www.w3.org/2000/svg" xmlns:sodipodi="http://sodipodi.sourceforge.net/DTD/sodipodi-0.dtd" xmlns:inkscape="http://www.inkscape.org/namespaces/inkscape" version="1.1" id="Layer_1" x="0px" y="0px" viewBox="293 -56 175.6 116.7" xml:space="preserve" inkscape:version="0.91 r13725" sodipodi:docname="browser-spin.svg" width="175.60001" height="116.7"><metadata id="metadata156"><rdf:rdf><cc:work rdf:about=""><dc:format>image/svg+xml</dc:format><dc:type rdf:resource="http://purl.org/dc/dcmitype/StillImage"></dc:type><dc:title></dc:title></cc:work></rdf:rdf></metadata><defs id="defs154"></defs><sodipodi:namedview pagecolor="#ffffff" bordercolor="#666666" borderopacity="1" objecttolerance="10" gridtolerance="10" guidetolerance="10" inkscape:pageopacity="0" inkscape:pageshadow="2" inkscape:window-width="863" inkscape:window-height="694" id="namedview152" showgrid="false" inkscape:zoom="0.50186174" inkscape:cx="387.04696" inkscape:cy="57.500003" inkscape:window-x="630" inkscape:window-y="10" inkscape:window-maximized="0" inkscape:current-layer="Layer_1" inkscape:snap-global="true" fit-margin-top="0" fit-margin-left="0" fit-margin-right="0" fit-margin-bottom="0"></sodipodi:namedview><g id="g11" transform="translate(-432.9,-12.8)" inkscape:export-xdpi="90" inkscape:export-ydpi="90"><g id="g13"><g id="Macbook_base_67_"><g id="g16"><g id="g3489"><g id="g3486"><path class="st2" d="m 895.8,-42.7 -164.3,0 c -2.8,0 -5.1,2.3 -5.1,5.1 l 0,105.5 c 0,2.8 2.3,5.1 5.1,5.1 l 164.4,0 c 2.8,0 5.1,-2.3 5.1,-5.1 l 0,-105.5 c 0,-2.8 -2.4,-5.1 -5.2,-5.1 z" id="path18" inkscape:connector-curvature="0" style="fill:#ffffff"></path></g></g></g><g id="g20"><path class="st3" d="m 895.8,-42.7 -164.3,0 c -2.8,0 -5.1,2.3 -5.1,5.1 l 0,105.5 c 0,2.8 2.3,5.1 5.1,5.1 l 164.4,0 c 2.8,0 5.1,-2.3 5.1,-5.1 l 0,-105.5 c 0,-2.8 -2.4,-5.1 -5.2,-5.1 z" id="path22" inkscape:connector-curvature="0" style="fill:none;stroke:#a5b5b8;stroke-miterlimit:10"></path></g></g><g id="Macbook_base_65_"><g id="g25"><path class="st1" d="m 895.8,-42.7 -164.3,0 c -2.8,0 -5.1,2.3 -5.1,5.1 l 0,4.9 174.6,0 0,-4.9 c 0,-2.8 -2.4,-5.1 -5.2,-5.1 z" id="path27" inkscape:connector-curvature="0" style="fill:#a5b5b8"></path></g></g><g id="g29"><circle class="st2" cx="732.79999" cy="-37.599998" r="1.5" id="circle31" style="fill:#ffffff"></circle><circle class="st2" cx="737.79999" cy="-37.599998" r="1.5" id="circle33" style="fill:#ffffff"></circle><circle class="st2" cx="742.79999" cy="-37.599998" r="1.5" id="circle35" style="fill:#ffffff"></circle></g><rect x="784.59998" y="-39.099998" class="st4" width="57.900002" height="3.4000001" id="rect37" style="fill:#ebebec"></rect></g><g id="g39"><path class="st5" d="m 816.3,3.8 c 0,1.5 -1.2,2.7 -2.7,2.7 l 0,0 c -1.5,0 -2.7,-1.2 -2.7,-2.7 l 0,-8.2 c 0,-1.5 1.2,-2.7 2.7,-2.7 l 0,0 c 1.5,0 2.7,1.2 2.7,2.7 l 0,8.2 z" id="path41" inkscape:connector-curvature="0" style="opacity:0.6;fill:#b6b6b7;enable-background:new"></path><path class="st6" d="m 816.3,44.6 c 0,1.5 -1.2,2.7 -2.7,2.7 l 0,0 c -1.5,0 -2.7,-1.2 -2.7,-2.7 l 0,-8.2 c 0,-1.5 1.2,-2.7 2.7,-2.7 l 0,0 c 1.5,0 2.7,1.2 2.7,2.7 l 0,8.2 z" id="path43" inkscape:connector-curvature="0" style="fill:#b6b6b7"></path><path class="st7" d="m 797.2,17.4 c 1.5,0 2.7,1.2 2.7,2.7 l 0,0 c 0,1.5 -1.2,2.7 -2.7,2.7 l -8.2,0 c -1.5,0 -2.7,-1.2 -2.7,-2.7 l 0,0 c 0,-1.5 1.2,-2.7 2.7,-2.7 l 8.2,0 z" id="path45" inkscape:connector-curvature="0" style="opacity:0.35;fill:#b6b6b7;enable-background:new"></path><path class="st8" d="m 838.1,17.4 c 1.5,0 2.7,1.2 2.7,2.7 l 0,0 c 0,1.5 -1.2,2.7 -2.7,2.7 l -8.2,0 c -1.5,0 -2.7,-1.2 -2.7,-2.7 l 0,0 c 0,-1.5 1.2,-2.7 2.7,-2.7 l 8.2,0 z" id="path47" inkscape:connector-curvature="0" style="opacity:0.8;fill:#b6b6b7;enable-background:new"></path><path class="st9" d="m 798.1,25.9 c 1.3,-0.8 3,-0.3 3.7,1 l 0,0 c 0.8,1.3 0.3,3 -1,3.7 l -7.1,4.1 c -1.3,0.8 -3,0.3 -3.7,-1 l 0,0 c -0.8,-1.3 -0.3,-3 1,-3.7 l 7.1,-4.1 z" id="path49" inkscape:connector-curvature="0" style="opacity:0.3;fill:#b6b6b7;enable-background:new"></path><path class="st10" d="m 833.5,5.5 c 1.3,-0.8 3,-0.3 3.7,1 l 0,0 c 0.8,1.3 0.3,3 -1,3.7 l -7.1,4.1 c -1.3,0.8 -3,0.3 -3.7,-1 l 0,0 c -0.8,-1.3 -0.3,-3 1,-3.7 l 7.1,-4.1 z" id="path51" inkscape:connector-curvature="0" style="opacity:0.7;fill:#b6b6b7;enable-background:new"></path><path class="st11" d="m 819.5,35.6 c -0.8,-1.3 -0.3,-3 1,-3.7 l 0,0 c 1.3,-0.8 3,-0.3 3.7,1 l 4.1,7.1 c 0.8,1.3 0.3,3 -1,3.7 l 0,0 c -1.3,0.8 -3,0.3 -3.7,-1 l -4.1,-7.1 z" id="path53" inkscape:connector-curvature="0" style="opacity:0.9;fill:#b6b6b7;enable-background:new"></path><path class="st12" d="m 799,0.2 c -0.8,-1.3 -0.3,-3 1,-3.7 l 0,0 c 1.3,-0.8 3,-0.3 3.7,1 l 4.1,7.1 c 0.8,1.3 0.3,3 -1,3.7 l 0,0 c -1.3,0.8 -3,0.3 -3.7,-1 L 799,0.2 Z" id="path55" inkscape:connector-curvature="0" style="opacity:0.5;fill:#b6b6b7;enable-background:new"></path><path class="st13" d="m 803,32.9 c 0.8,-1.3 2.4,-1.8 3.7,-1 l 0,0 c 1.3,0.7 1.8,2.4 1,3.7 l -4.1,7.1 c -0.8,1.3 -2.4,1.8 -3.7,1 l 0,0 c -1.3,-0.7 -1.8,-2.4 -1,-3.7 l 4.1,-7.1 z" id="path57" inkscape:connector-curvature="0" style="opacity:0.2;fill:#b6b6b7;enable-background:new"></path><path class="st14" d="m 823.5,-2.5 c 0.8,-1.3 2.4,-1.8 3.7,-1 l 0,0 c 1.3,0.7 1.7,2.4 1,3.7 l -4.1,7.1 c -0.8,1.3 -2.4,1.8 -3.7,1 l 0,0 c -1.3,-0.7 -1.8,-2.4 -1,-3.7 l 4.1,-7.1 z" id="path59" inkscape:connector-curvature="0" style="opacity:0.65;fill:#b6b6b7;enable-background:new"></path><path class="st15" d="m 826.3,30.6 c -1.3,-0.8 -1.8,-2.4 -1,-3.7 l 0,0 c 0.8,-1.3 2.4,-1.7 3.7,-1 l 7.1,4.1 c 1.3,0.8 1.8,2.4 1,3.7 l 0,0 c -0.8,1.3 -2.4,1.8 -3.7,1 l -7.1,-4.1 z" id="path61" inkscape:connector-curvature="0" style="opacity:0.85;fill:#b6b6b7;enable-background:new"></path><path class="st16" d="m 791,10.2 c -1.3,-0.8 -1.8,-2.4 -1,-3.7 l 0,0 c 0.8,-1.3 2.4,-1.7 3.7,-1 l 7.1,4.1 c 1.3,0.8 1.8,2.4 1,3.7 l 0,0 c -0.8,1.3 -2.4,1.8 -3.7,1 L 791,10.2 Z" id="path63" inkscape:connector-curvature="0" style="opacity:0.45;fill:#b6b6b7;enable-background:new"></path></g></g></svg>
